<?xml version="1.0" ?><!DOCTYPE svg  PUBLIC '-//W3C//DTD SVG 1.1//EN'  'http://www.w3.org/Graphics/SVG/1.1/DTD/svg11.dtd'><svg enable-background="new 0 0 24 24" height="24px" id="Layer_1" version="1.1" viewBox="0 0 24 24" width="24px" xml:space="preserve" xmlns="http://www.w3.org/2000/svg" xmlns:xlink="http://www.w3.org/1999/xlink"><path d="M20,10V8c0-4.4-3.6-8-8-8S4,3.6,4,8v2c-1.1,0-2,0.9-2,2v2c0,1.1,0.9,2,2,2h2V8c0-3.3,2.7-6,6-6s6,2.7,6,6v8h0.9  c-0.4,2.7-2.4,4.9-5,5.7c-0.1-1-1-1.7-2-1.7c-1.1,0-2,0.9-2,2s0.9,2,2,2c0.8,0,1.5-0.5,1.8-1.2c3.2-0.8,5.7-3.4,6.1-6.8H20  c1.1,0,2-0.9,2-2v-2C22,10.9,21.1,10,20,10z M5,15H4c-0.6,0-1-0.4-1-1v-2c0-0.6,0.4-1,1-1h1V15z M12,23c-0.6,0-1-0.4-1-1s0.4-1,1-1  s1,0.4,1,1S12.6,23,12,23z M21,14c0,0.6-0.4,1-1,1h-1v-4h1c0.6,0,1,0.4,1,1V14z"/></svg>